<svg xmlns="http://www.w3.org/2000/svg" viewBox="0 0 64 64">
  <!-- Background -->
  <rect width="64" height="64" fill="#7c3aed" rx="8"/>
  
  <!-- QR Code Pattern -->
  <!-- Top-left corner square -->
  <rect x="8" y="8" width="16" height="16" fill="white" rx="2"/>
  <rect x="10" y="10" width="12" height="12" fill="#7c3aed"/>
  <rect x="12" y="12" width="8" height="8" fill="white"/>
  
  <!-- Top-right corner square -->
  <rect x="40" y="8" width="16" height="16" fill="white" rx="2"/>
  <rect x="42" y="10" width="12" height="12" fill="#7c3aed"/>
  <rect x="44" y="12" width="8" height="8" fill="white"/>
  
  <!-- Bottom-left corner square -->
  <rect x="8" y="40" width="16" height="16" fill="white" rx="2"/>
  <rect x="10" y="42" width="12" height="12" fill="#7c3aed"/>
  <rect x="12" y="44" width="8" height="8" fill="white"/>
  
  <!-- Data pattern dots -->
  <rect x="28" y="8" width="4" height="4" fill="white"/>
  <rect x="36" y="8" width="4" height="4" fill="white"/>
  <rect x="8" y="28" width="4" height="4" fill="white"/>
  <rect x="8" y="36" width="4" height="4" fill="white"/>
  <rect x="28" y="28" width="4" height="4" fill="white"/>
  <rect x="36" y="28" width="4" height="4" fill="white"/>
  <rect x="28" y="36" width="4" height="4" fill="white"/>
  <rect x="36" y="36" width="4" height="4" fill="white"/>
  <rect x="52" y="28" width="4" height="4" fill="white"/>
  <rect x="52" y="36" width="4" height="4" fill="white"/>
  <rect x="28" y="52" width="4" height="4" fill="white"/>
  <rect x="36" y="52" width="4" height="4" fill="white"/>
</svg>

